<mxfile host="app.diagrams.net" agent="Mozilla/5.0 (Windows NT 10.0; Win64; x64) AppleWebKit/537.36 (KHTML, like Gecko) Chrome/132.0.0.0 YaBrowser/25.2.0.0 Safari/537.36" version="26.1.3">
  <diagram name="Page-1" id="2YBvvXClWsGukQMizWep">
    <mxGraphModel dx="2982" dy="1370" grid="1" gridSize="10" guides="1" tooltips="1" connect="1" arrows="1" fold="1" page="1" pageScale="1" pageWidth="850" pageHeight="1100" math="0" shadow="0">
      <root>
        <mxCell id="0" />
        <mxCell id="1" parent="0" />
        <mxCell id="L7Wqnrm9oX1bSZ09dxOa-52" value="" style="rounded=0;whiteSpace=wrap;html=1;" vertex="1" parent="1">
          <mxGeometry x="-210" width="1240" height="1200" as="geometry" />
        </mxCell>
        <mxCell id="aM9ryv3xv72pqoxQDRHE-1" value="Товар" style="shape=umlLifeline;perimeter=lifelinePerimeter;whiteSpace=wrap;html=1;container=0;dropTarget=0;collapsible=0;recursiveResize=0;outlineConnect=0;portConstraint=eastwest;newEdgeStyle={&quot;edgeStyle&quot;:&quot;elbowEdgeStyle&quot;,&quot;elbow&quot;:&quot;vertical&quot;,&quot;curved&quot;:0,&quot;rounded&quot;:0};" parent="1" vertex="1">
          <mxGeometry x="40" y="40" width="100" height="1120" as="geometry" />
        </mxCell>
        <mxCell id="aM9ryv3xv72pqoxQDRHE-2" value="" style="html=1;points=[];perimeter=orthogonalPerimeter;outlineConnect=0;targetShapes=umlLifeline;portConstraint=eastwest;newEdgeStyle={&quot;edgeStyle&quot;:&quot;elbowEdgeStyle&quot;,&quot;elbow&quot;:&quot;vertical&quot;,&quot;curved&quot;:0,&quot;rounded&quot;:0};" parent="aM9ryv3xv72pqoxQDRHE-1" vertex="1">
          <mxGeometry x="45" y="70" width="10" height="150" as="geometry" />
        </mxCell>
        <mxCell id="aM9ryv3xv72pqoxQDRHE-3" value="" style="html=1;verticalAlign=bottom;startArrow=oval;endArrow=block;startSize=8;edgeStyle=elbowEdgeStyle;elbow=vertical;curved=0;rounded=0;" parent="aM9ryv3xv72pqoxQDRHE-1" edge="1">
          <mxGeometry relative="1" as="geometry">
            <mxPoint x="-140" y="120" as="sourcePoint" />
            <mxPoint x="45" y="120" as="targetPoint" />
          </mxGeometry>
        </mxCell>
        <mxCell id="L7Wqnrm9oX1bSZ09dxOa-12" value="заходит на главную&amp;nbsp;&lt;div&gt;страницу&amp;nbsp;&lt;div&gt;интернет-магазина&lt;/div&gt;&lt;/div&gt;" style="edgeLabel;html=1;align=center;verticalAlign=middle;resizable=0;points=[];" vertex="1" connectable="0" parent="aM9ryv3xv72pqoxQDRHE-3">
          <mxGeometry x="-0.2808" y="1" relative="1" as="geometry">
            <mxPoint x="23" y="1" as="offset" />
          </mxGeometry>
        </mxCell>
        <mxCell id="aM9ryv3xv72pqoxQDRHE-5" value="Корзина" style="shape=umlLifeline;perimeter=lifelinePerimeter;whiteSpace=wrap;html=1;container=0;dropTarget=0;collapsible=0;recursiveResize=0;outlineConnect=0;portConstraint=eastwest;newEdgeStyle={&quot;edgeStyle&quot;:&quot;elbowEdgeStyle&quot;,&quot;elbow&quot;:&quot;vertical&quot;,&quot;curved&quot;:0,&quot;rounded&quot;:0};" parent="1" vertex="1">
          <mxGeometry x="240" y="40" width="100" height="1120" as="geometry" />
        </mxCell>
        <mxCell id="aM9ryv3xv72pqoxQDRHE-6" value="" style="html=1;points=[];perimeter=orthogonalPerimeter;outlineConnect=0;targetShapes=umlLifeline;portConstraint=eastwest;newEdgeStyle={&quot;edgeStyle&quot;:&quot;elbowEdgeStyle&quot;,&quot;elbow&quot;:&quot;vertical&quot;,&quot;curved&quot;:0,&quot;rounded&quot;:0};" parent="aM9ryv3xv72pqoxQDRHE-5" vertex="1">
          <mxGeometry x="45" y="290" width="10" height="90" as="geometry" />
        </mxCell>
        <mxCell id="aM9ryv3xv72pqoxQDRHE-10" value="возвращает&amp;nbsp;&lt;div&gt;список сендвичей&lt;/div&gt;" style="html=1;verticalAlign=bottom;endArrow=open;dashed=1;endSize=8;edgeStyle=elbowEdgeStyle;elbow=vertical;curved=0;rounded=0;" parent="1" edge="1">
          <mxGeometry relative="1" as="geometry">
            <mxPoint x="-100" y="240.14999999999998" as="targetPoint" />
            <Array as="points" />
            <mxPoint x="85" y="239.9961538461538" as="sourcePoint" />
          </mxGeometry>
        </mxCell>
        <mxCell id="L7Wqnrm9oX1bSZ09dxOa-1" value="Клиент" style="shape=umlActor;verticalLabelPosition=bottom;verticalAlign=top;html=1;outlineConnect=0;" vertex="1" parent="1">
          <mxGeometry x="-120" y="30" width="30" height="60" as="geometry" />
        </mxCell>
        <mxCell id="L7Wqnrm9oX1bSZ09dxOa-4" value="Оплата" style="shape=umlLifeline;perimeter=lifelinePerimeter;whiteSpace=wrap;html=1;container=0;dropTarget=0;collapsible=0;recursiveResize=0;outlineConnect=0;portConstraint=eastwest;newEdgeStyle={&quot;edgeStyle&quot;:&quot;elbowEdgeStyle&quot;,&quot;elbow&quot;:&quot;vertical&quot;,&quot;curved&quot;:0,&quot;rounded&quot;:0};" vertex="1" parent="1">
          <mxGeometry x="850" y="40" width="100" height="1120" as="geometry" />
        </mxCell>
        <mxCell id="L7Wqnrm9oX1bSZ09dxOa-5" value="" style="html=1;points=[];perimeter=orthogonalPerimeter;outlineConnect=0;targetShapes=umlLifeline;portConstraint=eastwest;newEdgeStyle={&quot;edgeStyle&quot;:&quot;elbowEdgeStyle&quot;,&quot;elbow&quot;:&quot;vertical&quot;,&quot;curved&quot;:0,&quot;rounded&quot;:0};" vertex="1" parent="L7Wqnrm9oX1bSZ09dxOa-4">
          <mxGeometry x="45" y="970" width="10" height="70" as="geometry" />
        </mxCell>
        <mxCell id="L7Wqnrm9oX1bSZ09dxOa-6" value="Промоакции" style="shape=umlLifeline;perimeter=lifelinePerimeter;whiteSpace=wrap;html=1;container=0;dropTarget=0;collapsible=0;recursiveResize=0;outlineConnect=0;portConstraint=eastwest;newEdgeStyle={&quot;edgeStyle&quot;:&quot;elbowEdgeStyle&quot;,&quot;elbow&quot;:&quot;vertical&quot;,&quot;curved&quot;:0,&quot;rounded&quot;:0};" vertex="1" parent="1">
          <mxGeometry x="590" y="40" width="100" height="1120" as="geometry" />
        </mxCell>
        <mxCell id="L7Wqnrm9oX1bSZ09dxOa-7" value="" style="html=1;points=[];perimeter=orthogonalPerimeter;outlineConnect=0;targetShapes=umlLifeline;portConstraint=eastwest;newEdgeStyle={&quot;edgeStyle&quot;:&quot;elbowEdgeStyle&quot;,&quot;elbow&quot;:&quot;vertical&quot;,&quot;curved&quot;:0,&quot;rounded&quot;:0};" vertex="1" parent="L7Wqnrm9oX1bSZ09dxOa-6">
          <mxGeometry x="45" y="590" width="10" height="90" as="geometry" />
        </mxCell>
        <mxCell id="L7Wqnrm9oX1bSZ09dxOa-8" value="Оформление заказа" style="shape=umlLifeline;perimeter=lifelinePerimeter;whiteSpace=wrap;html=1;container=0;dropTarget=0;collapsible=0;recursiveResize=0;outlineConnect=0;portConstraint=eastwest;newEdgeStyle={&quot;edgeStyle&quot;:&quot;elbowEdgeStyle&quot;,&quot;elbow&quot;:&quot;vertical&quot;,&quot;curved&quot;:0,&quot;rounded&quot;:0};" vertex="1" parent="1">
          <mxGeometry x="420" y="40" width="100" height="1120" as="geometry" />
        </mxCell>
        <mxCell id="L7Wqnrm9oX1bSZ09dxOa-9" value="" style="html=1;points=[];perimeter=orthogonalPerimeter;outlineConnect=0;targetShapes=umlLifeline;portConstraint=eastwest;newEdgeStyle={&quot;edgeStyle&quot;:&quot;elbowEdgeStyle&quot;,&quot;elbow&quot;:&quot;vertical&quot;,&quot;curved&quot;:0,&quot;rounded&quot;:0};" vertex="1" parent="L7Wqnrm9oX1bSZ09dxOa-8">
          <mxGeometry x="45" y="440" width="10" height="640" as="geometry" />
        </mxCell>
        <mxCell id="L7Wqnrm9oX1bSZ09dxOa-10" value="Доставка" style="shape=umlLifeline;perimeter=lifelinePerimeter;whiteSpace=wrap;html=1;container=0;dropTarget=0;collapsible=0;recursiveResize=0;outlineConnect=0;portConstraint=eastwest;newEdgeStyle={&quot;edgeStyle&quot;:&quot;elbowEdgeStyle&quot;,&quot;elbow&quot;:&quot;vertical&quot;,&quot;curved&quot;:0,&quot;rounded&quot;:0};" vertex="1" parent="1">
          <mxGeometry x="720" y="40" width="100" height="1120" as="geometry" />
        </mxCell>
        <mxCell id="L7Wqnrm9oX1bSZ09dxOa-11" value="" style="html=1;points=[];perimeter=orthogonalPerimeter;outlineConnect=0;targetShapes=umlLifeline;portConstraint=eastwest;newEdgeStyle={&quot;edgeStyle&quot;:&quot;elbowEdgeStyle&quot;,&quot;elbow&quot;:&quot;vertical&quot;,&quot;curved&quot;:0,&quot;rounded&quot;:0};" vertex="1" parent="L7Wqnrm9oX1bSZ09dxOa-10">
          <mxGeometry x="45" y="730" width="10" height="80" as="geometry" />
        </mxCell>
        <mxCell id="L7Wqnrm9oX1bSZ09dxOa-14" value="" style="html=1;verticalAlign=bottom;startArrow=oval;endArrow=block;startSize=8;edgeStyle=elbowEdgeStyle;elbow=vertical;curved=0;rounded=0;" edge="1" parent="1" target="aM9ryv3xv72pqoxQDRHE-6">
          <mxGeometry relative="1" as="geometry">
            <mxPoint x="-100" y="330" as="sourcePoint" />
            <mxPoint x="85" y="330" as="targetPoint" />
          </mxGeometry>
        </mxCell>
        <mxCell id="L7Wqnrm9oX1bSZ09dxOa-15" value="нажимает кнопку&amp;nbsp;&lt;div&gt;Добавить товар в корзину&lt;/div&gt;" style="edgeLabel;html=1;align=center;verticalAlign=middle;resizable=0;points=[];" vertex="1" connectable="0" parent="L7Wqnrm9oX1bSZ09dxOa-14">
          <mxGeometry x="-0.2808" y="1" relative="1" as="geometry">
            <mxPoint x="23" y="1" as="offset" />
          </mxGeometry>
        </mxCell>
        <mxCell id="L7Wqnrm9oX1bSZ09dxOa-23" value="" style="html=1;verticalAlign=bottom;startArrow=oval;endArrow=block;startSize=8;edgeStyle=elbowEdgeStyle;elbow=vertical;curved=0;rounded=0;" edge="1" parent="1" target="L7Wqnrm9oX1bSZ09dxOa-9">
          <mxGeometry relative="1" as="geometry">
            <mxPoint x="-100" y="480" as="sourcePoint" />
            <mxPoint x="280" y="480" as="targetPoint" />
          </mxGeometry>
        </mxCell>
        <mxCell id="L7Wqnrm9oX1bSZ09dxOa-24" value="нажимает кнопку&amp;nbsp;&lt;div&gt;в корзине Оформить заказ&lt;/div&gt;" style="edgeLabel;html=1;align=center;verticalAlign=middle;resizable=0;points=[];" vertex="1" connectable="0" parent="L7Wqnrm9oX1bSZ09dxOa-23">
          <mxGeometry x="-0.2808" y="1" relative="1" as="geometry">
            <mxPoint x="-38" y="1" as="offset" />
          </mxGeometry>
        </mxCell>
        <mxCell id="L7Wqnrm9oX1bSZ09dxOa-26" value="отображает страницу&lt;div&gt;&amp;nbsp;оформления заказа&lt;/div&gt;" style="html=1;verticalAlign=bottom;endArrow=open;dashed=1;endSize=8;edgeStyle=elbowEdgeStyle;elbow=horizontal;curved=0;rounded=0;" edge="1" parent="1" source="L7Wqnrm9oX1bSZ09dxOa-9">
          <mxGeometry x="-0.0811" y="10" relative="1" as="geometry">
            <mxPoint x="-100" y="570" as="targetPoint" />
            <Array as="points">
              <mxPoint x="280" y="570" />
            </Array>
            <mxPoint x="455" y="570" as="sourcePoint" />
            <mxPoint as="offset" />
          </mxGeometry>
        </mxCell>
        <mxCell id="L7Wqnrm9oX1bSZ09dxOa-33" value="" style="html=1;verticalAlign=bottom;startArrow=oval;endArrow=block;startSize=8;edgeStyle=elbowEdgeStyle;elbow=vertical;curved=0;rounded=0;" edge="1" parent="1" target="L7Wqnrm9oX1bSZ09dxOa-9">
          <mxGeometry relative="1" as="geometry">
            <mxPoint x="-100" y="630" as="sourcePoint" />
            <mxPoint x="460" y="630" as="targetPoint" />
          </mxGeometry>
        </mxCell>
        <mxCell id="L7Wqnrm9oX1bSZ09dxOa-34" value="заполняет информацию для оформления заказа" style="edgeLabel;html=1;align=center;verticalAlign=middle;resizable=0;points=[];" vertex="1" connectable="0" parent="L7Wqnrm9oX1bSZ09dxOa-33">
          <mxGeometry x="-0.2808" y="1" relative="1" as="geometry">
            <mxPoint x="-38" y="1" as="offset" />
          </mxGeometry>
        </mxCell>
        <mxCell id="L7Wqnrm9oX1bSZ09dxOa-37" value="рассчитывает итоговую стоимость заказа" style="html=1;verticalAlign=bottom;endArrow=open;dashed=1;endSize=8;edgeStyle=elbowEdgeStyle;elbow=horizontal;curved=0;rounded=0;" edge="1" parent="1">
          <mxGeometry x="-0.0811" y="10" relative="1" as="geometry">
            <mxPoint x="-100" y="890" as="targetPoint" />
            <Array as="points">
              <mxPoint x="280" y="890" />
            </Array>
            <mxPoint x="465" y="890" as="sourcePoint" />
            <mxPoint as="offset" />
          </mxGeometry>
        </mxCell>
        <mxCell id="L7Wqnrm9oX1bSZ09dxOa-38" value="" style="html=1;verticalAlign=bottom;startArrow=oval;endArrow=block;startSize=8;edgeStyle=elbowEdgeStyle;elbow=vertical;curved=0;rounded=0;" edge="1" parent="1">
          <mxGeometry relative="1" as="geometry">
            <mxPoint x="-100" y="1000" as="sourcePoint" />
            <mxPoint x="465" y="1000" as="targetPoint" />
          </mxGeometry>
        </mxCell>
        <mxCell id="L7Wqnrm9oX1bSZ09dxOa-39" value="нажимает кнопку оформить заказ" style="edgeLabel;html=1;align=center;verticalAlign=middle;resizable=0;points=[];" vertex="1" connectable="0" parent="L7Wqnrm9oX1bSZ09dxOa-38">
          <mxGeometry x="-0.2808" y="1" relative="1" as="geometry">
            <mxPoint x="-38" y="1" as="offset" />
          </mxGeometry>
        </mxCell>
        <mxCell id="L7Wqnrm9oX1bSZ09dxOa-40" value="возвращает информацию об оформленном заказе" style="html=1;verticalAlign=bottom;endArrow=open;dashed=1;endSize=8;edgeStyle=elbowEdgeStyle;elbow=horizontal;curved=0;rounded=0;" edge="1" parent="1">
          <mxGeometry x="-0.0811" y="10" relative="1" as="geometry">
            <mxPoint x="-100" y="1110" as="targetPoint" />
            <Array as="points">
              <mxPoint x="280" y="1110" />
            </Array>
            <mxPoint x="465" y="1110" as="sourcePoint" />
            <mxPoint as="offset" />
          </mxGeometry>
        </mxCell>
        <mxCell id="L7Wqnrm9oX1bSZ09dxOa-41" value="" style="endArrow=classic;html=1;rounded=0;" edge="1" parent="1" target="L7Wqnrm9oX1bSZ09dxOa-10">
          <mxGeometry width="50" height="50" relative="1" as="geometry">
            <mxPoint x="475" y="770" as="sourcePoint" />
            <mxPoint x="635" y="770" as="targetPoint" />
          </mxGeometry>
        </mxCell>
        <mxCell id="L7Wqnrm9oX1bSZ09dxOa-42" value="запрашивает расчет цены&lt;div&gt;доставки&lt;/div&gt;" style="edgeLabel;html=1;align=center;verticalAlign=middle;resizable=0;points=[];" vertex="1" connectable="0" parent="L7Wqnrm9oX1bSZ09dxOa-41">
          <mxGeometry x="-0.2044" y="1" relative="1" as="geometry">
            <mxPoint x="16" y="1" as="offset" />
          </mxGeometry>
        </mxCell>
        <mxCell id="L7Wqnrm9oX1bSZ09dxOa-43" value="возвращает цену&amp;nbsp;&lt;div&gt;с учетом скидки&lt;/div&gt;" style="html=1;verticalAlign=bottom;endArrow=open;dashed=1;endSize=8;edgeStyle=elbowEdgeStyle;elbow=horizontal;curved=0;rounded=0;" edge="1" parent="1" target="L7Wqnrm9oX1bSZ09dxOa-9">
          <mxGeometry x="-0.0811" y="10" relative="1" as="geometry">
            <mxPoint x="450" y="720" as="targetPoint" />
            <Array as="points">
              <mxPoint x="635" y="720" />
            </Array>
            <mxPoint x="640" y="720" as="sourcePoint" />
            <mxPoint as="offset" />
          </mxGeometry>
        </mxCell>
        <mxCell id="L7Wqnrm9oX1bSZ09dxOa-45" value="возвращает цену доставки" style="html=1;verticalAlign=bottom;endArrow=open;dashed=1;endSize=8;edgeStyle=elbowEdgeStyle;elbow=horizontal;curved=0;rounded=0;" edge="1" parent="1" target="L7Wqnrm9oX1bSZ09dxOa-9">
          <mxGeometry x="-0.0811" y="10" relative="1" as="geometry">
            <mxPoint x="600" y="850" as="targetPoint" />
            <Array as="points">
              <mxPoint x="760" y="850" />
            </Array>
            <mxPoint x="765" y="850" as="sourcePoint" />
            <mxPoint as="offset" />
          </mxGeometry>
        </mxCell>
        <mxCell id="L7Wqnrm9oX1bSZ09dxOa-46" value="" style="endArrow=classic;html=1;rounded=0;" edge="1" parent="1" source="L7Wqnrm9oX1bSZ09dxOa-9">
          <mxGeometry width="50" height="50" relative="1" as="geometry">
            <mxPoint x="480" y="1010" as="sourcePoint" />
            <mxPoint x="900" y="1010" as="targetPoint" />
          </mxGeometry>
        </mxCell>
        <mxCell id="L7Wqnrm9oX1bSZ09dxOa-47" value="переводит на страницу оплаты заказа,&lt;div&gt;если выбрана оплата онлайн&lt;/div&gt;" style="edgeLabel;html=1;align=center;verticalAlign=middle;resizable=0;points=[];" vertex="1" connectable="0" parent="L7Wqnrm9oX1bSZ09dxOa-46">
          <mxGeometry x="-0.2044" y="1" relative="1" as="geometry">
            <mxPoint x="16" y="1" as="offset" />
          </mxGeometry>
        </mxCell>
        <mxCell id="L7Wqnrm9oX1bSZ09dxOa-48" value="возвращает результат оплаты заказа" style="html=1;verticalAlign=bottom;endArrow=open;dashed=1;endSize=8;edgeStyle=elbowEdgeStyle;elbow=horizontal;curved=0;rounded=0;" edge="1" parent="1" target="L7Wqnrm9oX1bSZ09dxOa-9">
          <mxGeometry x="-0.0811" y="10" relative="1" as="geometry">
            <mxPoint x="480" y="1080" as="targetPoint" />
            <Array as="points">
              <mxPoint x="895" y="1080" />
            </Array>
            <mxPoint x="900" y="1080" as="sourcePoint" />
            <mxPoint as="offset" />
          </mxGeometry>
        </mxCell>
        <mxCell id="L7Wqnrm9oX1bSZ09dxOa-49" value="возвращает состояние, что&lt;div&gt;товар добавлен&amp;nbsp;&lt;/div&gt;" style="html=1;verticalAlign=bottom;endArrow=open;dashed=1;endSize=8;edgeStyle=elbowEdgeStyle;elbow=horizontal;curved=0;rounded=0;" edge="1" parent="1" source="aM9ryv3xv72pqoxQDRHE-5">
          <mxGeometry x="-0.0811" y="10" relative="1" as="geometry">
            <mxPoint x="-110" y="420" as="targetPoint" />
            <Array as="points">
              <mxPoint x="75" y="420" />
            </Array>
            <mxPoint x="80" y="420" as="sourcePoint" />
            <mxPoint as="offset" />
          </mxGeometry>
        </mxCell>
        <mxCell id="L7Wqnrm9oX1bSZ09dxOa-50" value="" style="endArrow=classic;html=1;rounded=0;" edge="1" parent="1">
          <mxGeometry width="50" height="50" relative="1" as="geometry">
            <mxPoint x="475.0000000000002" y="640" as="sourcePoint" />
            <mxPoint x="635.0000000000002" y="640" as="targetPoint" />
          </mxGeometry>
        </mxCell>
        <mxCell id="L7Wqnrm9oX1bSZ09dxOa-51" value="запрашивает расчет цены&lt;div&gt;с учетом скидки&lt;/div&gt;" style="edgeLabel;html=1;align=center;verticalAlign=middle;resizable=0;points=[];" vertex="1" connectable="0" parent="L7Wqnrm9oX1bSZ09dxOa-50">
          <mxGeometry x="-0.2044" y="1" relative="1" as="geometry">
            <mxPoint x="16" y="1" as="offset" />
          </mxGeometry>
        </mxCell>
      </root>
    </mxGraphModel>
  </diagram>
</mxfile>
